<svg height="26" width="26" viewBox="0 0 26 26" fill="none" xmlns="http://www.w3.org/2000/svg">
<path d="M15.6288 19.2819C16.0636 19.6821 16.0584 20.37 15.6177 20.7636L11.5423 24.4031C11.1618 24.7429 10.5866 24.7419 10.2074 24.4007L0.331225 15.5167C0.120396 15.3271 0 15.0568 0 14.7732V7.17737C0 6.30631 1.03627 5.85169 1.6772 6.44156L15.6288 19.2819Z" fill="#EC4D1B"/>
<path d="M12.7318 13.4245C12.29 13.8318 12.3046 14.534 12.763 14.9225L16.9109 18.4381C17.2919 18.761 17.8526 18.7533 18.2246 18.4202L21.4147 15.5635C21.6266 15.3738 21.7476 15.1029 21.7476 14.8185V7.3944C21.7476 6.52293 20.7105 6.06848 20.0698 6.65918L12.7318 13.4245Z" fill="#EC4D1B"/>
<path d="M14.5381 8.70849C14.7241 9.10787 14.6269 9.58199 14.2986 9.87587L11.5534 12.3334C11.1684 12.678 10.5843 12.6726 10.2057 12.3209L7.57501 9.87631C7.25727 9.58105 7.1661 9.11462 7.34928 8.72145L10.0402 2.94559C10.3991 2.17534 11.4943 2.17534 11.8531 2.94559L14.5381 8.70849Z" fill="#EC4D1B"/>
</svg>
