<svg width="150" height="104" viewBox="0 0 150 104" fill="none" xmlns="http://www.w3.org/2000/svg">
<path d="M97.5167 80.2738L82.6667 92.0003V30.0174C82.6667 29.1288 83.0179 28.2766 83.6431 27.6483C84.2682 27.02 85.116 26.667 86.0001 26.667H146C146.884 26.667 147.732 27.02 148.357 27.6483C148.982 28.2766 149.333 29.1288 149.333 30.0174V76.9234C149.333 77.812 148.982 78.6642 148.357 79.2925C147.732 79.9208 146.884 80.2738 146 80.2738H97.5167Z" fill="#CBBAAE"/>
<g clip-path="url(#clip0_2321_488)">
<path d="M50.7804 52.5128L65.3334 64V3.28205C65.3334 2.4116 64.9892 1.57679 64.3766 0.96129C63.764 0.345786 62.9331 0 62.0667 0H3.26671C2.40034 0 1.56944 0.345786 0.956825 0.96129C0.344208 1.57679 3.8147e-05 2.4116 3.8147e-05 3.28205V49.2308C3.8147e-05 50.1012 0.344208 50.936 0.956825 51.5515C1.56944 52.167 2.40034 52.5128 3.26671 52.5128H50.7804Z" fill="#EC4D1B"/>
<mask id="mask0_2321_488" style="mask-type:alpha" maskUnits="userSpaceOnUse" x="0" y="0" width="66" height="64">
<path d="M50.7804 52.5128L65.3334 64V3.28205C65.3334 2.4116 64.9892 1.57679 64.3766 0.96129C63.764 0.345786 62.9331 0 62.0667 0H3.26671C2.40034 0 1.56944 0.345786 0.956825 0.96129C0.344208 1.57679 3.8147e-05 2.4116 3.8147e-05 3.28205V49.2308C3.8147e-05 50.1012 0.344208 50.936 0.956825 51.5515C1.56944 52.167 2.40034 52.5128 3.26671 52.5128H50.7804Z" fill="#D9D9D9"/>
</mask>
<g mask="url(#mask0_2321_488)">
<g filter="url(#filter0_f_2321_488)">
<ellipse cx="55.6596" cy="45.7946" rx="28.6596" ry="28.7946" fill="#F38E6F"/>
</g>
</g>
<path d="M36.5939 32.6677C36.8837 32.9345 36.8803 33.3931 36.5865 33.6555L31.7789 37.949C31.5252 38.1755 31.1418 38.1748 30.8889 37.9474L20.2208 28.351C20.0803 28.2246 20 28.0444 20 27.8554V18.9151C20 18.3344 20.6908 18.0313 21.1181 18.4246L36.5939 32.6677Z" fill="#FFE6DE"/>
<path d="M32.9575 26.5714C32.663 26.843 32.6727 27.3111 32.9783 27.5701L37.8752 31.7205C38.1292 31.9357 38.503 31.9306 38.751 31.7086L42.4447 28.4009C42.5859 28.2744 42.6666 28.0938 42.6666 27.9042V19.1415C42.6666 18.5605 41.9752 18.2576 41.548 18.6514L32.9575 26.5714Z" fill="#FFE6DE"/>
<path d="M35.2697 21.6207C35.3937 21.887 35.3289 22.2031 35.1101 22.399L31.786 25.3747C31.5294 25.6045 31.1399 25.6008 30.8876 25.3663L27.6946 22.3993C27.4828 22.2024 27.422 21.8915 27.5441 21.6294L30.8046 14.631C31.0438 14.1175 31.774 14.1175 32.0132 14.631L35.2697 21.6207Z" fill="#FFE6DE"/>
</g>
<path d="M99.584 49.064C99.584 47.784 100.032 47.544 102.048 47.544V46.184C99.2 46.2 98.144 46.952 98.144 49.048V51.208C98.144 51.976 97.728 52.776 96.736 52.776H95.952V53.992H96.736C97.728 53.992 98.144 54.792 98.144 55.56V57.704C98.144 59.8 99.2 60.568 102.048 60.568V59.208C100.032 59.208 99.584 58.968 99.584 57.688V56.008C99.584 54.584 99.104 53.64 97.648 53.384C99.104 53.128 99.584 52.184 99.584 50.744V49.064ZM137.978 52.76C136.986 52.76 136.554 51.96 136.554 51.192V49.048C136.554 46.952 135.514 46.184 132.666 46.184V47.544C134.666 47.544 135.114 47.784 135.114 49.064V50.744C135.114 52.168 135.594 53.112 137.05 53.368C135.594 53.624 135.114 54.568 135.114 56.008V57.688C135.114 58.968 134.666 59.208 132.666 59.208V60.568C135.514 60.568 136.554 59.8 136.554 57.704V55.544C136.554 54.776 136.986 53.976 137.978 53.976H138.762V52.76H137.978Z" fill="white"/>
<path d="M110.564 52.4643C110.564 53.4273 109.784 54.2079 108.821 54.2079C107.858 54.2079 107.077 53.4273 107.077 52.4643C107.077 51.5013 107.858 50.7207 108.821 50.7207C109.784 50.7207 110.564 51.5013 110.564 52.4643Z" fill="white"/>
<circle cx="117.539" cy="49.8481" r="1.74362" fill="white"/>
<circle cx="126.257" cy="52.4643" r="1.74362" fill="white"/>
<path d="M64.5652 82.6615C61.7962 80.4005 57.4158 80.0173 57.2283 80.0035C56.9375 79.9787 56.6603 80.1441 56.5408 80.4171C56.5299 80.4336 56.4348 80.6569 56.3288 81.0044C58.1603 81.3187 60.4103 81.9501 62.4457 83.2322C62.7717 83.4363 62.8723 83.8719 62.6712 84.2028C62.5381 84.4206 62.3125 84.5392 62.0788 84.5392C61.9538 84.5392 61.8261 84.5033 61.712 84.4316C58.212 82.2286 53.8424 82.1183 53 82.1183C52.1576 82.1183 47.7853 82.2286 44.288 84.4316C43.962 84.6384 43.5326 84.5364 43.3315 84.2056C43.1277 83.8719 43.2283 83.439 43.5543 83.2322C45.5897 81.9529 47.8397 81.3187 49.6712 81.0071C49.5652 80.6569 49.4701 80.4364 49.462 80.4171C49.3397 80.1441 49.0652 79.9731 48.7717 80.0035C48.5842 80.0173 44.2038 80.4005 41.3967 82.6918C39.9321 84.0677 37 92.1079 37 99.059C37 99.1831 37.0326 99.3016 37.0924 99.4091C39.1141 103.016 44.6332 103.959 45.8913 104C45.8967 104 45.9049 104 45.913 104C46.1359 104 46.3451 103.892 46.4755 103.71L47.7473 101.935C44.3152 101.036 42.5625 99.5084 42.462 99.4174C42.1739 99.161 42.1467 98.7143 42.4022 98.422C42.6549 98.1298 43.0951 98.1022 43.3832 98.3586C43.4239 98.3972 46.6522 101.177 53 101.177C59.3587 101.177 62.587 98.3862 62.6196 98.3586C62.9076 98.105 63.3451 98.1298 63.6006 98.4248C63.8533 98.7171 63.8261 99.161 63.5381 99.4174C63.4375 99.5084 61.6848 101.036 58.2527 101.935L59.5245 103.71C59.6549 103.892 59.8641 104 60.087 104C60.0951 104 60.1033 104 60.1087 104C61.3669 103.959 66.8859 103.016 68.9076 99.4091C68.9674 99.3016 69 99.1831 69 99.059C69 92.1079 66.0679 84.0677 64.5652 82.6615ZM48.4783 96.2355C47.1332 96.2355 46.0435 94.9727 46.0435 93.4121C46.0435 91.8515 47.1332 90.5886 48.4783 90.5886C49.8234 90.5886 50.913 91.8515 50.913 93.4121C50.913 94.9727 49.8234 96.2355 48.4783 96.2355ZM57.5217 96.2355C56.1766 96.2355 55.087 94.9727 55.087 93.4121C55.087 91.8515 56.1766 90.5886 57.5217 90.5886C58.8669 90.5886 59.9565 91.8515 59.9565 93.4121C59.9565 94.9727 58.8669 96.2355 57.5217 96.2355Z" fill="#36343A"/>
<defs>
<filter id="filter0_f_2321_488" x="-21.4532" y="-31.4532" width="154.226" height="154.495" filterUnits="userSpaceOnUse" color-interpolation-filters="sRGB">
<feFlood flood-opacity="0" result="BackgroundImageFix"/>
<feBlend mode="normal" in="SourceGraphic" in2="BackgroundImageFix" result="shape"/>
<feGaussianBlur stdDeviation="24.2266" result="effect1_foregroundBlur_2321_488"/>
</filter>
<clipPath id="clip0_2321_488">
<rect width="65.3333" height="64" fill="white"/>
</clipPath>
</defs>
</svg>
