<svg width="53" height="34" viewBox="0 0 53 34" fill="none" xmlns="http://www.w3.org/2000/svg">
<rect y="10.5586" width="47.3545" height="22.1974" rx="4" transform="rotate(-12.8839 0 10.5586)" fill="#B58EFF"/>
<g style="mix-blend-mode:multiply">
<rect x="5.17969" y="11.0986" width="47.3545" height="22.1974" rx="4" fill="#6B40E4"/>
</g>
<path d="M18.57 19.1159V26.2959H23.64V24.8659H20.21V23.3359H23.07V21.9259H20.21V20.5459H23.64V19.1159H18.57ZM27.8963 19.1159L25.2463 26.2959H26.8963L27.4163 24.8559H30.2363L30.7563 26.2959H32.4463L29.8063 19.1159H27.8963ZM28.8163 20.9659L29.7263 23.4759H27.9163L28.8163 20.9659ZM33.5905 25.0759C34.1805 25.8959 35.4805 26.4059 36.6705 26.4059C38.2605 26.4059 39.5705 25.5359 39.5705 24.0359C39.5705 22.4559 38.1705 22.1659 37.0405 21.9259C36.1205 21.7259 35.6305 21.6259 35.6305 21.1259C35.6305 20.6659 36.0705 20.3859 36.7005 20.3859C37.4605 20.3859 38.0505 20.7459 38.4905 21.3059L39.5005 20.2059C38.9705 19.5359 37.9905 19.0059 36.7505 19.0059C35.2205 19.0059 34.0005 19.8859 34.0005 21.2959C34.0005 22.7359 35.1605 23.0859 36.2205 23.3159C37.3105 23.5559 37.9205 23.6359 37.9205 24.2059C37.9205 24.7459 37.4305 25.0259 36.7405 25.0259C35.9705 25.0259 35.1805 24.6459 34.6205 23.9259L33.5905 25.0759ZM44.0627 21.8959L42.4227 19.1159H40.6127L43.2027 23.4159V26.2959H44.8727V23.4159L47.4627 19.1159H45.7027L44.0627 21.8959Z" fill="#FFAD93"/>
<circle cx="11.8384" cy="22.1973" r="2.21974" fill="#FBFBFB"/>
</svg>
