<svg width="54" height="45" viewBox="0 0 54 45" fill="none" xmlns="http://www.w3.org/2000/svg">
<line x1="23.4209" y1="44.874" x2="23.4209" y2="19.5575" stroke="#838B97" stroke-linecap="round"/>
<line x1="45.2773" y1="44.874" x2="45.2773" y2="19.5575" stroke="#838B97" stroke-linecap="round"/>
<line x1="4.5" y1="44.5" x2="4.5" y2="29.5" stroke="#838B97" stroke-linecap="round"/>
<path d="M9 18C9 21.3137 4.5 27 4.5 27C4.5 27 0 21.3137 0 18C0 14.6863 2.01472 12 4.5 12C6.98528 12 9 14.6863 9 18Z" fill="#EC4D1B"/>
<path d="M48.5187 13.5241C48.9535 13.9243 48.9483 14.6122 48.5076 15.0058L45.8239 17.4025C45.4434 17.7423 44.8682 17.7412 44.489 17.4001L37.3312 10.9614C37.1204 10.7718 37 10.5015 37 10.2179V5.20227C37 4.33121 38.0363 3.87659 38.6772 4.46647L48.5187 13.5241Z" fill="#EC4D1B"/>
<path d="M46.7569 9.12642C46.3151 9.53374 46.3298 10.236 46.7882 10.6245L49.5172 12.9375C49.8982 13.2604 50.4589 13.2527 50.8309 12.9196L52.978 10.9969C53.1898 10.8072 53.3109 10.5363 53.3109 10.2519V5.36608C53.3109 4.49461 52.2738 4.04015 51.6331 4.63086L46.7569 9.12642Z" fill="#EC4D1B"/>
<path d="M47.825 5.61324C48.0111 6.01262 47.9138 6.48674 47.5855 6.78062L45.8347 8.34796C45.4497 8.69261 44.8655 8.68719 44.487 8.33544L42.8143 6.78106C42.4965 6.4858 42.4054 6.01937 42.5885 5.6262L44.3033 1.94559C44.6622 1.17534 45.7574 1.17534 46.1162 1.94559L47.825 5.61324Z" fill="#EC4D1B"/>
<path d="M26.5187 13.5241C26.9535 13.9243 26.9483 14.6122 26.5076 15.0058L23.8239 17.4025C23.4434 17.7423 22.8682 17.7412 22.489 17.4001L15.3312 10.9614C15.1204 10.7718 15 10.5015 15 10.2179V5.20227C15 4.33121 16.0363 3.87659 16.6772 4.46647L26.5187 13.5241Z" fill="#EC4D1B"/>
<path d="M24.7569 9.12642C24.3151 9.53374 24.3298 10.236 24.7882 10.6245L27.5172 12.9375C27.8982 13.2604 28.4589 13.2527 28.8309 12.9196L30.978 10.9969C31.1898 10.8072 31.3109 10.5363 31.3109 10.2519V5.36608C31.3109 4.49461 30.2738 4.04015 29.6331 4.63086L24.7569 9.12642Z" fill="#EC4D1B"/>
<path d="M25.825 5.61324C26.0111 6.01262 25.9138 6.48674 25.5855 6.78062L23.8347 8.34796C23.4497 8.69261 22.8655 8.68719 22.487 8.33544L20.8143 6.78106C20.4965 6.4858 20.4054 6.01937 20.5885 5.6262L22.3033 1.94559C22.6622 1.17534 23.7574 1.17534 24.1162 1.94559L25.825 5.61324Z" fill="#EC4D1B"/>
</svg>
