<svg width="32" height="32" viewBox="0 0 32 32" fill="none" xmlns="http://www.w3.org/2000/svg">
<circle cx="16" cy="16" r="16" fill="#D5C5F5"/>
<g clip-path="url(#clip0_1252_700)">
<path d="M13.7752 15.5833H15.5835C16.5781 15.5833 17.5319 15.9784 18.2351 16.6817C18.9384 17.3849 19.3335 18.3388 19.3335 19.3333H13.4993L13.5002 20.1667H20.1668V19.3333C20.1642 18.4466 19.908 17.5792 19.4285 16.8333H21.8335C22.6212 16.8331 23.3929 17.0562 24.0589 17.4767C24.725 17.8972 25.2583 18.4979 25.5968 19.2092C23.626 21.81 20.4352 23.5 16.8335 23.5C14.5327 23.5 12.5835 23.0083 11.0002 22.1458V14.3925C12.014 14.5377 12.9714 14.9486 13.7752 15.5833ZM9.3335 13.5C9.53761 13.5 9.73461 13.575 9.88714 13.7106C10.0397 13.8462 10.1371 14.0331 10.161 14.2358L10.1668 14.3333V21.8333C10.1668 22.0544 10.079 22.2663 9.92275 22.4226C9.76647 22.5789 9.55451 22.6667 9.3335 22.6667H7.66683C7.44582 22.6667 7.23385 22.5789 7.07757 22.4226C6.92129 22.2663 6.8335 22.0544 6.8335 21.8333V14.3333C6.8335 14.1123 6.92129 13.9004 7.07757 13.7441C7.23385 13.5878 7.44582 13.5 7.66683 13.5H9.3335ZM17.3718 8.97917L17.6668 9.275L17.9618 8.98C18.155 8.78519 18.3848 8.63044 18.6379 8.52465C18.891 8.41887 19.1626 8.36412 19.4369 8.36356C19.7113 8.363 19.983 8.41663 20.2366 8.52138C20.4902 8.62613 20.7206 8.77993 20.9145 8.97396C21.1085 9.16798 21.2623 9.39841 21.3669 9.65201C21.4716 9.90561 21.5252 10.1774 21.5245 10.4517C21.5239 10.7261 21.4691 10.9976 21.3632 11.2507C21.2573 11.5038 21.1025 11.7336 20.9077 11.9267L17.6668 15.1667L14.4252 11.925C14.2303 11.7318 14.0756 11.5021 13.9698 11.2489C13.864 10.9958 13.8093 10.7243 13.8087 10.4499C13.8082 10.1755 13.8618 9.90379 13.9665 9.65022C14.0713 9.39664 14.2251 9.16626 14.4191 8.97229C14.6131 8.77832 14.8436 8.62458 15.0972 8.51991C15.3508 8.41523 15.6225 8.36167 15.8969 8.36231C16.1713 8.36295 16.4428 8.41777 16.6959 8.52363C16.949 8.62949 17.1787 8.7843 17.3718 8.97917Z" fill="#3503C1"/>
</g>
<defs>
<clipPath id="clip0_1252_700">
<rect width="20" height="20" fill="white" transform="translate(6 6)"/>
</clipPath>
</defs>
</svg>
