<svg width="32" height="32" viewBox="0 0 32 32" fill="none" xmlns="http://www.w3.org/2000/svg">
<circle cx="16" cy="16" r="16" fill="#D5C5F5"/>
<g clip-path="url(#clip0_1252_695)">
<path d="M15.9998 14.167C17.1049 14.167 18.1647 14.606 18.9461 15.3874C19.7275 16.1688 20.1665 17.2286 20.1665 18.3337V23.3337H11.8332V18.3337C11.8332 17.2286 12.2722 16.1688 13.0536 15.3874C13.835 14.606 14.8948 14.167 15.9998 14.167ZM10.4065 16.672C10.2739 17.1193 10.1955 17.581 10.1732 18.047L10.1665 18.3337V23.3337H7.6665V19.5837C7.66634 18.865 7.93153 18.1715 8.4112 17.6363C8.89087 17.1011 9.55125 16.7619 10.2657 16.6837L10.4073 16.672H10.4065ZM21.5932 16.672C22.3348 16.7172 23.0312 17.0436 23.5403 17.5847C24.0495 18.1258 24.3331 18.8407 24.3332 19.5837V23.3337H21.8332V18.3337C21.8332 17.7562 21.7498 17.1987 21.5932 16.672ZM10.5832 11.667C11.1357 11.667 11.6656 11.8865 12.0563 12.2772C12.447 12.6679 12.6665 13.1978 12.6665 13.7503C12.6665 14.3029 12.447 14.8328 12.0563 15.2235C11.6656 15.6142 11.1357 15.8337 10.5832 15.8337C10.0306 15.8337 9.50073 15.6142 9.11003 15.2235C8.71933 14.8328 8.49984 14.3029 8.49984 13.7503C8.49984 13.1978 8.71933 12.6679 9.11003 12.2772C9.50073 11.8865 10.0306 11.667 10.5832 11.667ZM21.4165 11.667C21.969 11.667 22.4989 11.8865 22.8896 12.2772C23.2803 12.6679 23.4998 13.1978 23.4998 13.7503C23.4998 14.3029 23.2803 14.8328 22.8896 15.2235C22.4989 15.6142 21.969 15.8337 21.4165 15.8337C20.864 15.8337 20.3341 15.6142 19.9434 15.2235C19.5527 14.8328 19.3332 14.3029 19.3332 13.7503C19.3332 13.1978 19.5527 12.6679 19.9434 12.2772C20.3341 11.8865 20.864 11.667 21.4165 11.667ZM15.9998 6.66699C16.8839 6.66699 17.7317 7.01818 18.3569 7.6433C18.982 8.26842 19.3332 9.11627 19.3332 10.0003C19.3332 10.8844 18.982 11.7322 18.3569 12.3573C17.7317 12.9825 16.8839 13.3337 15.9998 13.3337C15.1158 13.3337 14.2679 12.9825 13.6428 12.3573C13.0177 11.7322 12.6665 10.8844 12.6665 10.0003C12.6665 9.11627 13.0177 8.26842 13.6428 7.6433C14.2679 7.01818 15.1158 6.66699 15.9998 6.66699Z" fill="#3503C1"/>
</g>
<defs>
<clipPath id="clip0_1252_695">
<rect width="20" height="20" fill="white" transform="translate(6 5)"/>
</clipPath>
</defs>
</svg>
