<svg width="38" height="39" viewBox="0 0 38 39" fill="none" xmlns="http://www.w3.org/2000/svg">
<path d="M9.41612 0.265763C11.1197 -0.0877435 12.8787 -0.0885947 14.5826 0.263263C14.6961 1.00471 14.977 1.71131 15.4045 2.33054C15.8319 2.94977 16.3949 3.4657 17.0516 3.83999C17.7077 4.21557 18.441 4.43994 19.1968 4.49641C19.9527 4.55289 20.7117 4.44001 21.4174 4.16617C22.5771 5.45097 23.4555 6.95937 23.9975 8.59647C23.4056 9.06459 22.928 9.65867 22.6 10.3346C22.272 11.0105 22.1022 11.7508 22.1031 12.5006C22.1031 14.0803 22.8432 15.4887 24 16.4048C23.4548 18.0405 22.5753 19.5477 21.4161 20.8326C20.7106 20.5589 19.9518 20.4462 19.1962 20.5026C18.4406 20.5591 17.7076 20.7834 17.0516 21.1588C16.3954 21.5329 15.8329 22.0485 15.4057 22.6673C14.9785 23.2861 14.6976 23.9921 14.5839 24.733C12.8805 25.0873 11.1215 25.089 9.41738 24.738C9.30441 23.9959 9.02375 23.2885 8.59628 22.6686C8.16881 22.0487 7.60555 21.5322 6.94843 21.1575C6.29219 20.7821 5.55887 20.558 4.80302 20.5017C4.04716 20.4455 3.28821 20.5586 2.58261 20.8326C1.42277 19.5474 0.544313 18.0386 0.0025259 16.401C0.594056 15.9332 1.07151 15.3395 1.39945 14.664C1.7274 13.9886 1.89741 13.2487 1.89686 12.4994C1.89748 11.7494 1.72727 11.0089 1.39886 10.333C1.07046 9.65706 0.592326 9.06309 0 8.59521C0.545151 6.95947 1.42469 5.45227 2.58388 4.16742C3.28939 4.44106 4.04816 4.55383 4.80378 4.49736C5.5594 4.44089 6.29244 4.21663 6.94843 3.84124C7.60456 3.46707 8.16711 2.95146 8.59431 2.3327C9.02151 1.71394 9.3024 1.0079 9.41612 0.267013V0.265763ZM12 16.2498C13.0048 16.2498 13.9685 15.8548 14.679 15.1517C15.3895 14.4486 15.7887 13.495 15.7887 12.5006C15.7887 11.5063 15.3895 10.5527 14.679 9.84954C13.9685 9.14643 13.0048 8.75143 12 8.75143C10.9952 8.75143 10.0315 9.14643 9.321 9.84954C8.61049 10.5527 8.21132 11.5063 8.21132 12.5006C8.21132 13.495 8.61049 14.4486 9.321 15.1517C10.0315 15.8548 10.9952 16.2498 12 16.2498Z" fill="#B58EFF"/>
<g style="mix-blend-mode:multiply">
<path d="M32.956 10.7677L22 8.33301L11.044 10.7677C10.4347 10.9037 10 11.4437 10 12.069V25.3863C10 28.0597 11.336 30.557 13.5627 32.041L22 37.6663L30.4373 32.041C32.6627 30.5583 34 28.0597 34 25.385V12.069C34 11.4437 33.5653 10.9037 32.956 10.7677Z" fill="#6B40E4"/>
</g>
<path d="M27 19L20.8125 25L18 22.2727" stroke="#FFAD93" stroke-width="2" stroke-linecap="round" stroke-linejoin="round"/>
</svg>
