<svg xmlns="http://www.w3.org/2000/svg" viewBox="0 0 409.3 403.41"><defs><style>.cls-1{fill:#c90;}.cls-2{fill:#124e78;}.cls-3{fill:#002642;}</style></defs><title>grain_logo</title><g id="Layer_2" data-name="Layer 2"><g id="Layer_1-2" data-name="Layer 1"><path class="cls-1" d="M242.68,40.22l17.66-17.43a14.28,14.28,0,0,0,3.06-10.3,14,14,0,0,0-3.95-8.24L227.12,36.5,198.39,195.56l70.92-69.44Z"/><path class="cls-2" d="M227.12,36.5,259.45,4.25a13.48,13.48,0,0,0-15.31-3.08L172.15,72a66.94,66.94,0,0,0-17,58L181,212.76l17.4-17.2Z"/><path class="cls-2" d="M127.84,265l27.27-135,5-39.95a6,6,0,0,0-4.44-.59,5.49,5.49,0,0,0-2,1.06l-57.29,56a70.54,70.54,0,0,0-13,55.14q13.17,40.47,26.35,80.94Z"/><polygon class="cls-1" points="180.99 212.76 149.94 113.47 127.84 265.02 180.99 212.76"/><path class="cls-2" d="M56.78,335.13l27.27-135,5-40a6.12,6.12,0,0,0-4.45-.59,5.49,5.49,0,0,0-2,1.06l-57.29,56a70.54,70.54,0,0,0-13,55.14q13.19,40.47,26.35,80.94Z"/><polygon class="cls-1" points="109.94 282.87 78.89 183.58 56.78 335.13 109.94 282.87"/><path class="cls-1" d="M369,169l17.72-17.37A14.28,14.28,0,0,1,397,148.69a14.06,14.06,0,0,1,8.17,4.08l-32.76,31.81L212.93,210.73l70.58-69.79Z"/><path class="cls-2" d="M372.44,184.58l32.76-31.81A13.48,13.48,0,0,1,408,168.14L336,239a67,67,0,0,1-58.23,16.11l-82.35-27.22,17.48-17.12Z"/><path class="cls-2" d="M142.34,280.15,277.8,255.07l40-4.32a6.06,6.06,0,0,1,.52,4.45,5.74,5.74,0,0,1-1.09,2l-56.89,56.37A70.46,70.46,0,0,1,205,325.7l-80.5-27.65Z"/><polygon class="cls-1" points="195.45 227.84 294.23 260.5 142.34 280.14 195.45 227.84"/><path class="cls-2" d="M71.09,350.06,206.55,325l40-4.32a6,6,0,0,1,.52,4.45,5.43,5.43,0,0,1-1.09,2l-56.88,56.37a70.54,70.54,0,0,1-55.34,12.15L53.28,368Z"/><polygon class="cls-1" points="124.2 297.76 222.97 330.41 71.09 350.06 124.2 297.76"/><rect class="cls-3" x="144.77" y="37.35" width="23.89" height="427.33" rx="11.94" ry="11.94" transform="translate(227.77 -36.25) rotate(45.87)"/></g></g></svg>