<svg xmlns="http://www.w3.org/2000/svg" viewBox="0 0 423.29 417.41"><defs><style>.cls-1{fill:#002642;}.cls-2{fill:#fff;}.cls-3{fill:#c90;}.cls-4{fill:#124e78;}</style></defs><title>grain_logo_stroked</title><g id="Layer_2" data-name="Layer 2"><g id="Layer_1-2" data-name="Layer 1"><path class="cls-1" d="M18.93,413.91A15.43,15.43,0,0,1,8.18,387.39l32.5-31.53L15.84,279.57l0-.23A73.66,73.66,0,0,1,16.33,250a74.79,74.79,0,0,1,13.15-28.55l.16-.21L87.23,165l.11-.09a9,9,0,0,1,3.28-1.73,8.87,8.87,0,0,1,2.41-.33h.41a73.44,73.44,0,0,1,7.1-11.5l.16-.22,57.59-56.25.11-.09a8.84,8.84,0,0,1,5.69-2.06,10.57,10.57,0,0,1,1.14.07A70.57,70.57,0,0,1,176.6,76.63l72.53-71.4.58-.26a17.21,17.21,0,0,1,6.94-1.47,16.75,16.75,0,0,1,3.16.3A17.09,17.09,0,0,1,269,8.86a17.43,17.43,0,0,1,4.88,10.25A17.7,17.7,0,0,1,270.06,32l-.12.15L253.66,48.22l24.07,77.67,20-19.41a15.44,15.44,0,0,1,21.51,22.17L300,147.36,375,172l16.34-16,.15-.13a18,18,0,0,1,10.81-3.74,19,19,0,0,1,2.13.13,17.51,17.51,0,0,1,10.23,5.11,17,17,0,0,1,3.51,19.29l-.27.58-72.56,71.36A70.14,70.14,0,0,1,329,259.66a8.84,8.84,0,0,1-.31,3.54,9,9,0,0,1-1.78,3.26l-.1.11-57.17,56.67-.22.15a74.91,74.91,0,0,1-11.61,6.92,8.89,8.89,0,0,1-2.15,6.06l-.1.11-57.18,56.67-.21.16a74,74,0,0,1-43.55,14.17h0a74.59,74.59,0,0,1-14.54-1.43l-.23-.05L61.21,379,29.68,409.56A15.34,15.34,0,0,1,18.93,413.91Z"/><path class="cls-2" d="M256.65,7a13.18,13.18,0,0,1,2.5.24,13.59,13.59,0,0,1,7.3,4,14,14,0,0,1,3.95,8.24,14.28,14.28,0,0,1-3.06,10.3L249.68,47.22l26.4,85.16L300.19,109a11.94,11.94,0,1,1,16.63,17.14l-23.45,22.75L376,176l17.72-17.37a14.44,14.44,0,0,1,8.65-3,12.29,12.29,0,0,1,1.69.11,14.06,14.06,0,0,1,8.17,4.08A13.48,13.48,0,0,1,415,175.14L343,246a67.4,67.4,0,0,1-18.2,11.79h0a6.06,6.06,0,0,1,.52,4.45,5.74,5.74,0,0,1-1.09,2l-56.89,56.37a71.23,71.23,0,0,1-13.52,7.71,5.81,5.81,0,0,1,.24,3.84,5.43,5.43,0,0,1-1.09,2l-56.88,56.37a70.64,70.64,0,0,1-55.34,12.15L60.32,375,27.25,407.05a12,12,0,0,1-16.89-.26h0a12,12,0,0,1,.25-16.89l34.07-33L19.24,278.71a70.54,70.54,0,0,1,13-55.14l57.29-56A5.35,5.35,0,0,1,93,166.35a6.22,6.22,0,0,1,2.38.5,71.35,71.35,0,0,1,7.93-13.39l57.29-56a5.35,5.35,0,0,1,3.45-1.26,6.38,6.38,0,0,1,3,.79h0a67.71,67.71,0,0,1,12.08-18l72-70.85A13.67,13.67,0,0,1,256.65,7M244.49,248.74l40.31,13.33-40.31-13.33-40.32-13.33,40.32,13.33M256.65,0h0a20.66,20.66,0,0,0-8.36,1.77l-1.16.52-.9.89-1.14,1.11L174.24,74l-.1.1-.09.1a74,74,0,0,0-10.91,15,12.2,12.2,0,0,0-7,2.82l-.23.18-.22.21-57.29,56-.38.38-.32.42a78.65,78.65,0,0,0-6.5,10.23,12.21,12.21,0,0,0-1.57.34,12.37,12.37,0,0,0-4.55,2.39l-.23.19-.21.2L56,190.58l-28.64,28-.38.37-.32.43A77.52,77.52,0,0,0,12.36,280l.08.46.15.45L25.31,320l11.37,34.92-30.94,30a18.94,18.94,0,0,0,26.38,27.19L62.1,383l44.22,15.19,32.18,11.06.45.15.46.09a77.55,77.55,0,0,0,60.83-13.34l.43-.32.38-.37,38-37.64,18.9-18.74.21-.21.19-.22a12.5,12.5,0,0,0,2.47-4.52,14.08,14.08,0,0,0,.36-1.56,78.31,78.31,0,0,0,10.33-6.34l.43-.31.38-.38,28.38-28.12,28.5-28.25.21-.21.2-.23a12.5,12.5,0,0,0,2.46-4.51,12.26,12.26,0,0,0,.46-2.4,73.84,73.84,0,0,0,15.23-10.67l.1-.09.1-.1,47.74-47L420,180.13l.9-.89.54-1.15a20.47,20.47,0,0,0-4.25-23.28,21.06,21.06,0,0,0-12.23-6.07,20,20,0,0,0-2.57-.16,21.64,21.64,0,0,0-13,4.48l-.31.25-.28.27L374.11,168l-67.55-22.14,15.14-14.68A18.95,18.95,0,0,0,295.31,104l-15.92,15.45-21.76-70.2,14.63-14.44.28-.28.25-.31a21.18,21.18,0,0,0,4.57-15.45A21,21,0,0,0,271.49,6.4a20.57,20.57,0,0,0-11-6A20.24,20.24,0,0,0,256.65,0Z"/><path class="cls-3" d="M249.68,47.22l17.66-17.43a14.28,14.28,0,0,0,3.06-10.3,14,14,0,0,0-3.95-8.24L234.12,43.5,205.39,202.56l70.92-69.44Z"/><path class="cls-4" d="M234.12,43.5l32.33-32.25a13.48,13.48,0,0,0-15.31-3.08L179.15,79a66.94,66.94,0,0,0-17,58L188,219.76l17.4-17.2Z"/><path class="cls-4" d="M134.84,272l27.27-135,5-39.95a6,6,0,0,0-4.44-.59,5.49,5.49,0,0,0-2,1.06l-57.29,56a70.54,70.54,0,0,0-13,55.14q13.17,40.47,26.35,80.94Z"/><polygon class="cls-3" points="187.99 219.76 156.94 120.47 134.84 272.02 187.99 219.76"/><path class="cls-4" d="M63.78,342.13l27.27-135,5-40a6.12,6.12,0,0,0-4.45-.59,5.49,5.49,0,0,0-2,1.06l-57.29,56a70.54,70.54,0,0,0-13,55.14q13.19,40.47,26.35,80.94Z"/><polygon class="cls-3" points="116.94 289.87 85.89 190.58 63.78 342.13 116.94 289.87"/><path class="cls-3" d="M376,176l17.72-17.37A14.28,14.28,0,0,1,404,155.69a14.06,14.06,0,0,1,8.17,4.08l-32.76,31.81L219.93,217.73l70.58-69.79Z"/><path class="cls-4" d="M379.44,191.58l32.76-31.81A13.48,13.48,0,0,1,415,175.14L343,246a67,67,0,0,1-58.23,16.11l-82.35-27.22,17.48-17.12Z"/><polygon class="cls-3" points="202.45 234.84 301.23 267.5 149.34 287.14 202.45 234.84"/><path class="cls-4" d="M78.09,357.06,213.55,332l40-4.32a6,6,0,0,1,.52,4.45,5.43,5.43,0,0,1-1.09,2l-56.88,56.37a70.54,70.54,0,0,1-55.34,12.15L60.28,375Z"/><path class="cls-4" d="M149.34,287.15,284.8,262.07l40-4.32a6.06,6.06,0,0,1,.52,4.45,5.74,5.74,0,0,1-1.09,2l-56.89,56.37A70.46,70.46,0,0,1,212,332.7l-80.5-27.65Z"/><polygon class="cls-3" points="131.2 304.76 229.97 337.41 78.09 357.06 131.2 304.76"/><rect class="cls-1" x="151.77" y="44.35" width="23.89" height="427.33" rx="11.94" ry="11.94" transform="translate(234.92 -39.15) rotate(45.87)"/></g></g></svg>