<svg width="127" height="32" viewBox="0 0 127 32" fill="none" xmlns="http://www.w3.org/2000/svg">
<path d="M63.2507 15.6895C63.2507 22.1475 58.5038 28.4813 50.3425 28.4813C43.1805 28.4813 37.5176 22.934 37.5176 15.8965C37.5176 8.61062 43.4304 3.51877 50.4674 3.51877C55.9222 3.51877 61.1687 7.20311 62.5428 12.0052H55.6307C54.4648 10.0181 52.591 8.859 50.2592 8.9004C46.6366 8.9004 43.8468 11.9224 43.7218 15.5239C43.5553 19.7051 46.1369 23.0996 50.3425 23.0996C53.2156 23.0996 55.3809 21.6921 56.1304 19.2497H48.9268V14.3234H63.2923V15.6895H63.2507Z" fill="white"/>
<path d="M66.165 27.9845V9.97673H71.245V11.881H71.3283C72.286 9.97673 73.785 9.35577 75.867 9.35577V14.7788C72.6191 14.8202 71.5781 16.0207 71.5781 18.0492V27.9845H66.165Z" fill="white"/>
<path d="M91.4407 27.9845V26.0388H91.3574C90.5663 27.6119 88.401 28.6055 86.0276 28.6055C80.6561 28.6055 76.9502 24.4243 76.9502 18.9599C76.9502 13.6197 80.8227 9.35577 86.0276 9.35577C88.2345 9.35577 90.3164 10.2251 91.3574 11.881H91.4407V9.97673H96.8538V27.9845H91.4407ZM91.399 19.2083C91.524 16.8901 89.8168 14.8202 87.5266 14.4476C84.4869 13.9509 81.9886 16.5175 82.4049 19.7051C82.6548 21.7335 84.3204 23.348 86.319 23.555C89.0672 23.8448 91.2741 21.8577 91.399 19.2083Z" fill="white"/>
<path d="M100.81 27.9845V9.97672H106.223V27.9845H100.81Z" fill="white"/>
<path d="M121.504 27.9845V17.9664C121.504 15.524 120.671 14.4062 118.672 14.4062C116.465 14.4062 115.591 15.6067 115.591 18.0492V27.9845H110.178V9.97673H115.258V11.881H115.341C116.465 10.0181 118.089 9.35577 120.254 9.35577C123.502 9.35577 127 11.1773 127 16.5175V27.9845H121.504Z" fill="white"/>
<path d="M103.432 8.40363C105.042 8.40363 106.347 7.10624 106.347 5.50583C106.347 3.90542 105.042 2.60803 103.432 2.60803C101.823 2.60803 100.518 3.90542 100.518 5.50583C100.518 7.10624 101.823 8.40363 103.432 8.40363Z" fill="white"/>
<path d="M15.1573 0L9.74414 11.1772L15.1989 15.9793L20.5704 11.1772L15.1573 0Z" fill="white"/>
<path d="M0.416393 5.54721L0 19.0013L15.1984 32L22.86 25.3351L0.416393 5.54721Z" fill="white"/>
<path d="M30.147 19.0013V5.38162L16.4893 17.4282L24.3175 24.0517L30.147 19.0013Z" fill="white"/>
</svg>
