<svg xmlns="http://www.w3.org/2000/svg" viewBox="0 0 1533.51 2120.36"><defs><style>.cls-1{fill:#124e78;stroke:#fff;stroke-miterlimit:10;stroke-width:48px;opacity:0.2;}</style></defs><title>hexes</title><g id="Layer_2" data-name="Layer 2"><g id="Layer_1-2" data-name="Layer 1"><path class="cls-1" d="M440,800.73H195a46.93,46.93,0,0,0-40.64,23.46L31.81,1036.41a46.93,46.93,0,0,0,0,46.92l122.52,212.21A46.91,46.91,0,0,0,195,1319H440a46.91,46.91,0,0,0,40.63-23.46l122.52-212.21a46.88,46.88,0,0,0,0-46.92L480.64,824.19A46.93,46.93,0,0,0,440,800.73Z"/><path class="cls-1" d="M888.14,542h-245a46.91,46.91,0,0,0-40.63,23.46L479.94,777.67a46.93,46.93,0,0,0,0,46.92l122.53,212.22a46.93,46.93,0,0,0,40.63,23.46h245a46.93,46.93,0,0,0,40.64-23.46L1051.3,824.59a46.93,46.93,0,0,0,0-46.92L928.78,565.46A46.91,46.91,0,0,0,888.14,542Z"/><path class="cls-1" d="M891,1059.73H646a46.93,46.93,0,0,0-40.64,23.46L482.81,1295.41a46.93,46.93,0,0,0,0,46.92l122.52,212.21A46.91,46.91,0,0,0,646,1578H891a46.91,46.91,0,0,0,40.63-23.46l122.52-212.21a46.88,46.88,0,0,0,0-46.92L931.64,1083.19A46.93,46.93,0,0,0,891,1059.73Z"/><path class="cls-1" d="M443,1320H198a46.91,46.91,0,0,0-40.63,23.46L34.85,1555.67a46.88,46.88,0,0,0,0,46.92l122.52,212.22A46.93,46.93,0,0,0,198,1838.27H443a46.93,46.93,0,0,0,40.64-23.46L606.2,1602.59a46.93,46.93,0,0,0,0-46.92L483.68,1343.46A46.91,46.91,0,0,0,443,1320Z"/><path class="cls-1" d="M438.48,282.2h-245a46.91,46.91,0,0,0-40.63,23.46L30.29,517.87a46.88,46.88,0,0,0,0,46.92L152.81,777a46.92,46.92,0,0,0,40.63,23.47h245A46.92,46.92,0,0,0,479.12,777L601.64,564.79a46.93,46.93,0,0,0,0-46.92L479.12,305.66A46.91,46.91,0,0,0,438.48,282.2Z"/><path class="cls-1" d="M892.16,1578.09h-245a46.91,46.91,0,0,0-40.63,23.46L484,1813.76a46.9,46.9,0,0,0,0,46.93L606.49,2072.9a46.91,46.91,0,0,0,40.63,23.46h245a46.91,46.91,0,0,0,40.64-23.46l122.52-212.21a47,47,0,0,0,0-46.93L932.8,1601.55A46.91,46.91,0,0,0,892.16,1578.09Z"/><path class="cls-1" d="M1336,283.09H1091a46.94,46.94,0,0,0-40.64,23.46L927.84,518.76a46.93,46.93,0,0,0,0,46.92L1050.36,777.9A47,47,0,0,0,1091,801.36h245a46.93,46.93,0,0,0,40.64-23.46L1499.2,565.68a46.93,46.93,0,0,0,0-46.92L1376.68,306.55A46.91,46.91,0,0,0,1336,283.09Z"/><path class="cls-1" d="M1338.91,800.82H1093.86a46.91,46.91,0,0,0-40.63,23.46L930.71,1036.49a47,47,0,0,0,0,46.93l122.52,212.21a46.91,46.91,0,0,0,40.63,23.46h245.05a46.91,46.91,0,0,0,40.63-23.46l122.52-212.21a47,47,0,0,0,0-46.93L1379.54,824.28A46.91,46.91,0,0,0,1338.91,800.82Z"/><path class="cls-1" d="M1340.06,1319.18H1095a46.91,46.91,0,0,0-40.63,23.46L931.87,1554.85a46.88,46.88,0,0,0,0,46.92L1054.39,1814a46.93,46.93,0,0,0,40.63,23.46h245A46.93,46.93,0,0,0,1380.7,1814l122.52-212.22a46.93,46.93,0,0,0,0-46.92L1380.7,1342.64A46.91,46.91,0,0,0,1340.06,1319.18Z"/><path class="cls-1" d="M886.14,24h-245a46.91,46.91,0,0,0-40.63,23.46L477.94,259.67a46.93,46.93,0,0,0,0,46.92L600.47,518.81a46.93,46.93,0,0,0,40.63,23.46h245a46.93,46.93,0,0,0,40.64-23.46L1049.3,306.59a46.93,46.93,0,0,0,0-46.92L926.78,47.46A46.91,46.91,0,0,0,886.14,24Z"/></g></g></svg>