<svg xmlns="http://www.w3.org/2000/svg" viewBox="0 0 2432.16 2640.98"><defs><style>.cls-1{fill:#124e78;stroke:#fff;stroke-miterlimit:10;stroke-width:48px;opacity:0.2;}</style></defs><title>hexes2</title><g id="Layer_2" data-name="Layer 2"><g id="Layer_1-2" data-name="Layer 1"><path class="cls-1" d="M440,1061.69H195a46.91,46.91,0,0,0-40.64,23.46L31.81,1297.36a46.93,46.93,0,0,0,0,46.92L154.33,1556.5A46.93,46.93,0,0,0,195,1580H440a46.93,46.93,0,0,0,40.63-23.46l122.52-212.22a46.88,46.88,0,0,0,0-46.92L480.64,1085.15A46.91,46.91,0,0,0,440,1061.69Z"/><path class="cls-1" d="M888.14,803h-245a46.91,46.91,0,0,0-40.63,23.46L479.94,1038.63a46.93,46.93,0,0,0,0,46.92l122.53,212.21a46.92,46.92,0,0,0,40.63,23.47h245a46.92,46.92,0,0,0,40.64-23.47l122.52-212.21a46.93,46.93,0,0,0,0-46.92L928.78,826.42A46.91,46.91,0,0,0,888.14,803Z"/><path class="cls-1" d="M891,1320.69H646a46.91,46.91,0,0,0-40.64,23.46L482.81,1556.36a46.93,46.93,0,0,0,0,46.92L605.33,1815.5A46.93,46.93,0,0,0,646,1839H891a46.93,46.93,0,0,0,40.63-23.46l122.52-212.22a46.88,46.88,0,0,0,0-46.92L931.64,1344.15A46.91,46.91,0,0,0,891,1320.69Z"/><path class="cls-1" d="M443,1581H198a46.91,46.91,0,0,0-40.63,23.46L34.85,1816.63a46.88,46.88,0,0,0,0,46.92l122.52,212.21A46.92,46.92,0,0,0,198,2099.23H443a46.92,46.92,0,0,0,40.64-23.47L606.2,1863.55a46.93,46.93,0,0,0,0-46.92L483.68,1604.42A46.91,46.91,0,0,0,443,1581Z"/><path class="cls-1" d="M438.48,543.15h-245a46.92,46.92,0,0,0-40.63,23.47L30.29,778.83a46.88,46.88,0,0,0,0,46.92L152.81,1038a46.91,46.91,0,0,0,40.63,23.46h245A46.91,46.91,0,0,0,479.12,1038L601.64,825.75a46.93,46.93,0,0,0,0-46.92L479.12,566.62A46.92,46.92,0,0,0,438.48,543.15Z"/><path class="cls-1" d="M892.16,1839.05h-245a46.91,46.91,0,0,0-40.63,23.46L484,2074.72a46.88,46.88,0,0,0,0,46.92l122.52,212.22a46.93,46.93,0,0,0,40.63,23.46h245a46.93,46.93,0,0,0,40.64-23.46l122.52-212.22a46.93,46.93,0,0,0,0-46.92L932.8,1862.51A46.91,46.91,0,0,0,892.16,1839.05Z"/><path class="cls-1" d="M1336,544.05H1091a46.94,46.94,0,0,0-40.64,23.46L927.84,779.72a46.93,46.93,0,0,0,0,46.92l122.52,212.21a46.94,46.94,0,0,0,40.64,23.46h245a46.91,46.91,0,0,0,40.64-23.46L1499.2,826.64a46.93,46.93,0,0,0,0-46.92L1376.68,567.51A46.91,46.91,0,0,0,1336,544.05Z"/><path class="cls-1" d="M1338.91,1061.78H1093.86a46.91,46.91,0,0,0-40.63,23.46L930.71,1297.45a46.93,46.93,0,0,0,0,46.92l122.52,212.22a46.93,46.93,0,0,0,40.63,23.46h245.05a46.93,46.93,0,0,0,40.63-23.46l122.52-212.22a46.93,46.93,0,0,0,0-46.92l-122.52-212.21A46.91,46.91,0,0,0,1338.91,1061.78Z"/><path class="cls-1" d="M1340.06,1580.14H1095a46.91,46.91,0,0,0-40.63,23.46L931.87,1815.81a46.88,46.88,0,0,0,0,46.92l122.52,212.21A46.91,46.91,0,0,0,1095,2098.4h245a46.91,46.91,0,0,0,40.64-23.46l122.52-212.21a46.93,46.93,0,0,0,0-46.92L1380.7,1603.6A46.91,46.91,0,0,0,1340.06,1580.14Z"/><path class="cls-1" d="M886.14,285h-245a46.91,46.91,0,0,0-40.63,23.46L477.94,520.63a46.93,46.93,0,0,0,0,46.92L600.47,779.76a46.92,46.92,0,0,0,40.63,23.47h245a46.92,46.92,0,0,0,40.64-23.47L1049.3,567.55a46.93,46.93,0,0,0,0-46.92L926.78,308.42A46.91,46.91,0,0,0,886.14,285Z"/><path class="cls-1" d="M1334.91,24.5h-245A46.91,46.91,0,0,0,1049.24,48L926.71,260.17a46.93,46.93,0,0,0,0,46.92L1049.24,519.3a46.91,46.91,0,0,0,40.63,23.46h245a46.91,46.91,0,0,0,40.64-23.46l122.52-212.21a46.93,46.93,0,0,0,0-46.92L1375.55,48A46.91,46.91,0,0,0,1334.91,24.5Z"/><path class="cls-1" d="M1342,2098.71H1097a46.91,46.91,0,0,0-40.64,23.46L933.8,2334.38a47,47,0,0,0,0,46.93l122.52,212.21A46.91,46.91,0,0,0,1097,2617h245a46.91,46.91,0,0,0,40.63-23.46l122.53-212.21a47,47,0,0,0,0-46.93l-122.53-212.21A46.91,46.91,0,0,0,1342,2098.71Z"/><path class="cls-1" d="M1785,802.51h-245A46.91,46.91,0,0,0,1499.3,826l-122.52,212.21a46.93,46.93,0,0,0,0,46.92l122.52,212.22a46.93,46.93,0,0,0,40.63,23.46h245a46.93,46.93,0,0,0,40.63-23.46l122.52-212.22a46.93,46.93,0,0,0,0-46.92L1825.61,826A46.91,46.91,0,0,0,1785,802.51Z"/><path class="cls-1" d="M1787.84,1320.24h-245a46.94,46.94,0,0,0-40.64,23.46l-122.52,212.22a46.93,46.93,0,0,0,0,46.92l122.52,212.21a46.94,46.94,0,0,0,40.64,23.46h245a46.94,46.94,0,0,0,40.64-23.46L1951,1602.84a46.93,46.93,0,0,0,0-46.92L1828.48,1343.7A46.94,46.94,0,0,0,1787.84,1320.24Z"/><path class="cls-1" d="M1789,1838.6H1544a46.91,46.91,0,0,0-40.64,23.46L1380.8,2074.27a47,47,0,0,0,0,46.93l122.52,212.21a46.91,46.91,0,0,0,40.64,23.46h245a46.91,46.91,0,0,0,40.63-23.46l122.52-212.21a46.9,46.9,0,0,0,0-46.93l-122.52-212.21A46.91,46.91,0,0,0,1789,1838.6Z"/><path class="cls-1" d="M1783,284.51h-245A46.91,46.91,0,0,0,1497.3,308L1374.78,520.18a46.93,46.93,0,0,0,0,46.92L1497.3,779.32a46.93,46.93,0,0,0,40.63,23.46h245a46.93,46.93,0,0,0,40.63-23.46L1946.13,567.1a46.93,46.93,0,0,0,0-46.92L1823.61,308A46.91,46.91,0,0,0,1783,284.51Z"/><path class="cls-1" d="M2232.76,543.55H1987.71A46.91,46.91,0,0,0,1947.08,567L1824.56,779.22a47,47,0,0,0,0,46.93l122.52,212.21a46.91,46.91,0,0,0,40.63,23.46h245.05a46.91,46.91,0,0,0,40.63-23.46l122.52-212.21a47,47,0,0,0,0-46.93L2273.39,567A46.91,46.91,0,0,0,2232.76,543.55Z"/><path class="cls-1" d="M2235.62,1061.28h-245a47,47,0,0,0-40.64,23.46L1827.42,1297a46.93,46.93,0,0,0,0,46.92l122.52,212.21a46.94,46.94,0,0,0,40.64,23.46h245a46.94,46.94,0,0,0,40.64-23.46l122.52-212.21a46.93,46.93,0,0,0,0-46.92l-122.52-212.22A47,47,0,0,0,2235.62,1061.28Z"/><path class="cls-1" d="M2236.78,1579.64h-245a46.91,46.91,0,0,0-40.64,23.46l-122.52,212.21a47,47,0,0,0,0,46.93l122.52,212.21a46.91,46.91,0,0,0,40.64,23.46h245a46.91,46.91,0,0,0,40.63-23.46l122.52-212.21a46.9,46.9,0,0,0,0-46.93L2277.41,1603.1A46.91,46.91,0,0,0,2236.78,1579.64Z"/><path class="cls-1" d="M2231.63,24h-245A46.91,46.91,0,0,0,1946,47.46L1823.43,259.67a46.93,46.93,0,0,0,0,46.92L1946,518.81a46.93,46.93,0,0,0,40.64,23.46h245a46.93,46.93,0,0,0,40.63-23.46l122.52-212.22a46.88,46.88,0,0,0,0-46.92L2272.26,47.46A46.91,46.91,0,0,0,2231.63,24Z"/><path class="cls-1" d="M2238.71,2098.22h-245a46.91,46.91,0,0,0-40.63,23.46l-122.52,212.21a46.88,46.88,0,0,0,0,46.92L1953,2593a46.91,46.91,0,0,0,40.63,23.46h245a46.91,46.91,0,0,0,40.64-23.46l122.52-212.21a46.93,46.93,0,0,0,0-46.92l-122.52-212.21A46.91,46.91,0,0,0,2238.71,2098.22Z"/></g></g></svg>