<svg xmlns="http://www.w3.org/2000/svg" viewBox="0 0 412.3 406.41"><defs><style>.cls-1,.cls-4{fill:#002642;}.cls-1{stroke:#fff;stroke-miterlimit:10;stroke-width:3px;}.cls-2{fill:#c90;}.cls-3{fill:#124e78;}</style></defs><title>logo_stroked</title><g id="Layer_2" data-name="Layer 2"><g id="Layer_1-2" data-name="Layer 1"><path class="cls-1" d="M410.6,161.64a13.55,13.55,0,0,0-3.9-7.37,14.06,14.06,0,0,0-8.17-4.08,14.28,14.28,0,0,0-10.34,2.89l-17.72,17.37-82.6-27.07,23.45-22.75a11.94,11.94,0,1,0-16.63-17.14l-24.11,23.39-26.4-85.16,17.66-17.43A14.28,14.28,0,0,0,264.9,14,14,14,0,0,0,261,5.75a13.48,13.48,0,0,0-15.31-3.08l-72,70.85a67.71,67.71,0,0,0-12.08,18h0a6,6,0,0,0-4.44-.59,5.49,5.49,0,0,0-2,1.06L97.84,148a71.35,71.35,0,0,0-7.93,13.39,5.86,5.86,0,0,0-3.84-.3,5.49,5.49,0,0,0-2,1.06l-57.29,56a70.54,70.54,0,0,0-13,55.14l25.44,78.14-34.07,33a12,12,0,0,0-.25,16.89h0a12,12,0,0,0,16.89.26l33.07-32.08,80.46,27.65A70.54,70.54,0,0,0,190.62,385L247.5,328.6a5.43,5.43,0,0,0,1.09-2,5.81,5.81,0,0,0-.24-3.84,71.23,71.23,0,0,0,13.52-7.71l56.89-56.37a5.74,5.74,0,0,0,1.09-2,6.06,6.06,0,0,0-.52-4.45h0a67.4,67.4,0,0,0,18.2-11.79l72-70.82A13.59,13.59,0,0,0,410.6,161.64ZM279.3,256.57l-80.63-26.66h0l80.63,26.66Z"/><path class="cls-2" d="M244.18,41.72l17.66-17.43A14.28,14.28,0,0,0,264.9,14,14,14,0,0,0,261,5.75L228.62,38,199.89,197.06l70.92-69.44Z"/><path class="cls-3" d="M228.62,38,261,5.75a13.48,13.48,0,0,0-15.31-3.08l-72,70.85a66.94,66.94,0,0,0-17,58l25.88,82.78,17.4-17.2Z"/><path class="cls-3" d="M129.34,266.52l27.27-135,5-39.95a6,6,0,0,0-4.44-.59,5.49,5.49,0,0,0-2,1.06L97.84,148a70.54,70.54,0,0,0-13,55.14Q98,243.57,111.15,284Z"/><polygon class="cls-2" points="182.49 214.26 151.44 114.97 129.34 266.52 182.49 214.26"/><path class="cls-3" d="M58.28,336.63l27.27-135,5-40a6.12,6.12,0,0,0-4.45-.59,5.49,5.49,0,0,0-2,1.06l-57.29,56a70.54,70.54,0,0,0-13,55.14q13.19,40.47,26.35,80.94Z"/><polygon class="cls-2" points="111.44 284.37 80.39 185.08 58.28 336.63 111.44 284.37"/><path class="cls-2" d="M370.47,170.45l17.72-17.37a14.28,14.28,0,0,1,10.34-2.89,14.06,14.06,0,0,1,8.17,4.08l-32.76,31.81L214.43,212.23,285,142.44Z"/><path class="cls-3" d="M373.94,186.08l32.76-31.81a13.48,13.48,0,0,1,2.84,15.37l-72,70.82a67,67,0,0,1-58.23,16.11L197,229.35l17.48-17.12Z"/><polygon class="cls-2" points="196.95 229.34 295.73 262 143.84 281.64 196.95 229.34"/><path class="cls-3" d="M72.59,351.56l135.46-25.08,40-4.32a6,6,0,0,1,.52,4.45,5.43,5.43,0,0,1-1.09,2L190.62,385a70.54,70.54,0,0,1-55.34,12.15l-80.5-27.66Z"/><path class="cls-3" d="M143.84,281.65,279.3,256.57l40-4.32a6.06,6.06,0,0,1,.52,4.45,5.74,5.74,0,0,1-1.09,2l-56.89,56.37a70.46,70.46,0,0,1-55.34,12.14L126,299.55Z"/><polygon class="cls-2" points="125.7 299.26 224.47 331.91 72.59 351.56 125.7 299.26"/><rect class="cls-4" x="146.27" y="38.85" width="23.89" height="427.33" rx="11.94" ry="11.94" transform="translate(229.3 -36.87) rotate(45.87)"/></g></g></svg>