<svg width="290" height="227" viewBox="0 0 290 227" fill="none" xmlns="http://www.w3.org/2000/svg">
<path d="M219.762 255.127C221.502 256.728 221.481 259.479 219.718 261.054L150.174 323.161C148.652 324.52 146.351 324.516 144.834 323.151L1.3249 194.059C0.481583 193.3 0 192.219 0 191.085V61.9858C0 58.5016 4.14509 56.6831 6.70879 59.0426L219.762 255.127Z" fill="#EFEEF1"/>
<path d="M164.748 175.868C162.981 177.497 163.04 180.306 164.873 181.86L235.749 241.931C237.273 243.222 239.516 243.192 241.004 241.859L293.668 194.698C294.516 193.939 295 192.855 295 191.718V64.9106C295 61.4247 290.851 59.6069 288.288 61.9697L164.748 175.868Z" fill="#EFEEF1"/>
<path d="M200.202 110.996C200.946 112.593 200.557 114.49 199.244 115.665L150.219 159.553C148.679 160.932 146.342 160.91 144.828 159.503L97.6548 115.667C96.3838 114.486 96.0191 112.62 96.7519 111.048L144.863 7.78237C146.299 4.70138 150.679 4.70138 152.115 7.78237L200.202 110.996Z" fill="#EFEEF1"/>
</svg>
