<svg width="84" height="26" viewBox="0 0 84 26" fill="none" xmlns="http://www.w3.org/2000/svg">
<path d="M15.6288 19.2819C16.0636 19.6821 16.0584 20.37 15.6177 20.7636L11.5423 24.4031C11.1618 24.7429 10.5866 24.7419 10.2074 24.4007L0.331225 15.5167C0.120396 15.3271 0 15.0568 0 14.7732V7.17737C0 6.30631 1.03627 5.85169 1.6772 6.44156L15.6288 19.2819Z" fill="#EC4D1B"/>
<path d="M12.7318 13.4245C12.29 13.8318 12.3046 14.534 12.763 14.9225L16.9109 18.4381C17.2919 18.761 17.8526 18.7533 18.2246 18.4202L21.4147 15.5635C21.6266 15.3738 21.7476 15.1029 21.7476 14.8185V7.3944C21.7476 6.52293 20.7105 6.06848 20.0698 6.65918L12.7318 13.4245Z" fill="#EC4D1B"/>
<path d="M14.5381 8.70849C14.7241 9.10787 14.6269 9.58199 14.2986 9.87587L11.5534 12.3334C11.1684 12.678 10.5843 12.6726 10.2057 12.3209L7.57501 9.87631C7.25727 9.58105 7.1661 9.11462 7.34928 8.72145L10.0402 2.94559C10.3991 2.17534 11.4943 2.17534 11.8531 2.94559L14.5381 8.70849Z" fill="#EC4D1B"/>
<path d="M38.5383 20H41.2023V12.872H35.3703V15.338H38.2323C38.0703 16.67 37.0803 17.66 35.6043 17.66C33.6783 17.66 32.3823 16.04 32.3823 13.574C32.3823 11.108 33.6783 9.488 35.5503 9.488C36.9183 9.488 37.8543 10.28 38.1423 11.666L41.0043 10.748C40.2123 8.372 38.3583 6.878 35.5323 6.878C31.9323 6.878 29.3763 9.704 29.3763 13.61C29.3763 17.498 31.8783 20.198 35.2803 20.198C36.8463 20.198 38.0343 19.622 38.5383 18.848V20ZM48.8771 10.496C48.6971 10.478 48.5171 10.46 48.2471 10.46C47.1491 10.46 46.2311 11 45.7991 11.756V10.514H42.9191V20H45.7991V15.338C45.7991 13.97 46.7891 13.196 48.0311 13.196C48.3551 13.196 48.5711 13.214 48.8771 13.268V10.496ZM52.4172 20.18C53.6592 20.18 54.5952 19.802 55.2252 19.154C55.7112 19.964 56.8272 20.27 58.4832 20V17.876C57.9252 17.948 57.7452 17.804 57.7452 17.318V13.664C57.7452 11.45 56.2152 10.316 53.7312 10.316C51.3192 10.316 49.8252 11.684 49.4112 13.358L52.1652 13.772C52.3452 12.998 52.7772 12.638 53.6052 12.638C54.5412 12.638 54.9192 13.088 54.9192 13.79V13.952L52.7952 14.312C50.7972 14.6 49.1412 15.392 49.1412 17.354C49.1412 19.028 50.5092 20.18 52.4172 20.18ZM54.9192 16.598C54.9192 17.57 54.0372 18.074 53.0832 18.074C52.3992 18.074 51.9492 17.75 51.9492 17.156C51.9492 16.49 52.5072 16.238 53.2632 16.112L54.9192 15.806V16.598ZM59.5567 9.542H62.4907V7.076H59.5567V9.542ZM62.4547 10.514H59.5747V20H62.4547V10.514ZM64.1584 20H67.0384V14.582C67.0384 13.466 67.8124 12.908 68.6044 12.908C69.5404 12.908 69.9364 13.61 69.9364 14.564V20H72.8164V13.736C72.8164 11.666 71.5924 10.316 69.6484 10.316C68.4424 10.316 67.5604 10.856 67.0384 11.468V10.514H64.1584V20Z" fill="#36343A"/>
</svg>
